HIERARCHY
ROOT SpineBase
{
  OFFSET 0.000000 0.000000 0.000000
  CHANNELS 6 Xposition Yposition Zposition Zrotation Xrotation Yrotation
  JOINT SpineMid
  {
    OFFSET -0.000000 30.674780 0.000000
    CHANNELS 3 Zrotation Xrotation Yrotation
    JOINT SpineShoulder
    {
      OFFSET -0.184313 22.720229 -0.638982
      CHANNELS 3 Zrotation Xrotation Yrotation
      JOINT Neck
      {
        OFFSET -0.133168 7.488310 -0.505133
        CHANNELS 3 Zrotation Xrotation Yrotation
        JOINT Head
        {
          OFFSET 0.126807 13.651029 -1.034613
          CHANNELS 3 Zrotation Xrotation Yrotation
          End Site
          {
            OFFSET 0 0 0
          }
        }
      }
      JOINT ShoulderLeft
      {
        OFFSET -16.943689 -2.386085 5.385017
        CHANNELS 3 Zrotation Xrotation Yrotation
        JOINT ElbowLeft
        {
          OFFSET -6.490032 -28.850949 2.113879
          CHANNELS 3 Zrotation Xrotation Yrotation
          JOINT WristLeft
          {
            OFFSET -4.145581 -21.319205 -3.766046
            CHANNELS 3 Zrotation Xrotation Yrotation
            JOINT HandLeft
            {
              OFFSET -1.279163 -4.536463 -0.135732
              CHANNELS 3 Zrotation Xrotation Yrotation
              JOINT HandTipLeft
              {
                OFFSET -0.822948 -7.281686 0.354024
                CHANNELS 3 Zrotation Xrotation Yrotation
                End Site
                {
                  OFFSET 0 0 0
                }
              }
              JOINT ThumbLeft
              {
                OFFSET 2.327348 -0.144260 -3.359309
                CHANNELS 3 Zrotation Xrotation Yrotation
                End Site
                {
                  OFFSET 0 0 0
                }
              }
            }
          }
        }
      }
      JOINT ShoulderRight
      {
        OFFSET 15.800854 -4.657824 -4.244590
        CHANNELS 3 Zrotation Xrotation Yrotation
        JOINT ElbowRight
        {
          OFFSET 7.065618 -26.972894 0.968688
          CHANNELS 3 Zrotation Xrotation Yrotation
          JOINT WristRight
          {
            OFFSET 2.823645 -21.465447 -3.714596
            CHANNELS 3 Zrotation Xrotation Yrotation
            JOINT HandRight
            {
              OFFSET -1.050409 -3.729380 -0.400049
              CHANNELS 3 Zrotation Xrotation Yrotation
              JOINT HandTipRight
              {
                OFFSET 0.510120 -7.601629 0.095053
                CHANNELS 3 Zrotation Xrotation Yrotation
                End Site
                {
                  OFFSET 0 0 0
                }
              }
              JOINT ThumbRight
              {
                OFFSET -3.895785 3.981615 0.395800
                CHANNELS 3 Zrotation Xrotation Yrotation
                End Site
                {
                  OFFSET 0 0 0
                }
              }
            }
          }
        }
      }
    }
  }
  JOINT HipLeft
  {
    OFFSET -8.050207 0.058530 -1.445185
    CHANNELS 3 Zrotation Xrotation Yrotation
    JOINT KneeLeft
    {
      OFFSET 1.629386 -34.941471 3.492012
      CHANNELS 3 Zrotation Xrotation Yrotation
      JOINT AnkleLeft
      {
        OFFSET 5.222313 -37.302098 7.772438
        CHANNELS 3 Zrotation Xrotation Yrotation
        JOINT FootLeft
        {
          OFFSET -3.173461 -5.143588 -12.271750
          CHANNELS 3 Zrotation Xrotation Yrotation
          End Site
          {
            OFFSET 0 0 0
          }
        }
      }
    }
  }
  JOINT HipRight
  {
    OFFSET 6.514931 0.418770 -5.499168
    CHANNELS 3 Zrotation Xrotation Yrotation
    JOINT KneeRight
    {
      OFFSET 4.952056 -38.102998 -2.368294
      CHANNELS 3 Zrotation Xrotation Yrotation
      JOINT AnkleRight
      {
        OFFSET 3.089722 -37.001912 9.989442
        CHANNELS 3 Zrotation Xrotation Yrotation
        JOINT FootRight
        {
          OFFSET -2.048444 -6.170738 -10.010335
          CHANNELS 3 Zrotation Xrotation Yrotation
          End Site
          {
            OFFSET 0 0 0
          }
        }
      }
    }
  }
}
MOTION
Frames: 10
Frame Time: 0.033333
90.160683 81.235149 414.364017 0.000000 0.000000 15.553731 -0.000000 -0.000000 -15.553731 -0.000000 0.000000 0.000000 -0.000000 0.000000 0.000000 0.000000 0.000000 0.000000 -0.000000 0.000000 0.000000 -0.000000 0.000000 0.000000 -0.000000 0.000000 0.000000 -0.000000 0.000000 0.000000 0.000000 0.000000 0.000000 0.000000 0.000000 0.000000 -0.000000 0.000000 0.000000 -0.000000 0.000000 0.000000 -0.000000 0.000000 0.000000 -0.000000 0.000000 0.000000 0.000000 0.000000 0.000000 0.000000 0.000000 0.000000 -0.000000 -0.000000 -15.553731 -0.000000 0.000000 0.000000 -0.000000 0.000000 0.000000 0.000000 0.000000 0.000000 -0.000000 -0.000000 -15.553731 -0.000000 0.000000 0.000000 -0.000000 0.000000 0.000000 0.000000 0.000000 0.000000
90.100304 81.227533 414.430046 0.098479 -0.011860 15.543506 -0.091699 0.037816 -15.543466 -0.000000 0.000000 0.000000 -0.000000 0.000000 0.000000 0.000000 0.000000 0.000000 -0.000000 0.000000 0.000000 -1.081370 -0.271716 0.240960 -1.868737 2.878895 -0.804890 0.358540 -0.063564 0.234168 0.000000 0.000000 0.000000 0.000000 0.000000 0.000000 -0.000000 0.000000 0.000000 -0.000000 0.000000 0.000000 1.591349 1.200719 -0.527060 -1.345070 0.883062 0.638149 0.000000 0.000000 0.000000 0.000000 0.000000 0.000000 -0.091699 0.037816 -15.543466 -0.000000 0.000000 0.000000 -1.569960 3.459530 1.534586 0.000000 0.000000 0.000000 -0.647621 0.913214 -15.400659 -0.150842 -0.867499 -0.408682 -0.695772 3.785126 1.631246 0.000000 0.000000 0.000000
90.043701 81.226527 414.471847 0.163401 -0.020197 15.558968 -0.151996 0.063286 -15.558855 -0.000000 0.000000 0.000000 -0.000000 0.000000 0.000000 0.000000 0.000000 0.000000 -1.005251 -0.201698 -0.029990 -0.984079 -0.208636 0.456331 -3.097411 5.667770 -1.476014 0.446941 -0.425051 0.541513 0.000000 0.000000 0.000000 0.000000 0.000000 0.000000 -0.000000 0.000000 0.000000 -0.000000 0.000000 0.000000 3.476144 2.458538 -1.147312 -3.113706 1.169249 1.253147 0.000000 0.000000 0.000000 0.000000 0.000000 0.000000 -0.151996 0.063286 -15.558855 -0.000000 0.000000 0.000000 -2.551491 5.458635 2.518237 0.000000 0.000000 0.000000 -1.249821 1.640513 -15.291013 -0.305668 -1.571147 -0.788754 -1.205930 6.748623 3.050062 0.000000 0.000000 0.000000
89.990874 81.232132 414.489421 0.194818 -0.025017 15.600255 -0.180914 0.076487 -15.600092 -0.000000 0.000000 0.000000 -0.000000 0.000000 0.000000 0.000000 0.000000 0.000000 -1.363667 -0.248331 -0.046879 -1.360804 -0.164830 0.602280 -3.591974 8.322226 -2.092004 0.165696 -1.073300 0.884045 0.000000 0.000000 0.000000 0.000000 0.000000 0.000000 -0.000000 0.000000 0.000000 -0.000000 0.000000 0.000000 5.587707 3.696568 -1.840623 -5.220616 0.912416 1.806733 0.000000 0.000000 0.000000 0.000000 0.000000 0.000000 -0.180914 0.076487 -15.600092 -0.000000 0.000000 0.000000 -3.009998 6.303438 3.010684 0.000000 0.000000 0.000000 -1.802425 2.177695 -15.229035 -0.468607 -2.108007 -1.134452 -1.542127 9.047493 4.262662 0.000000 0.000000 0.000000
89.941823 81.244347 414.482766 0.192757 -0.026322 15.667434 -0.178487 0.077399 -15.667269 -0.000000 0.000000 0.000000 -0.000000 0.000000 0.000000 0.000000 0.000000 0.000000 -1.625830 -0.258848 -0.064360 -1.661449 -0.019884 0.695359 -3.254073 10.809705 -2.733031 -0.586056 -1.995707 1.223218 0.000000 0.000000 0.000000 0.000000 0.000000 0.000000 -0.000000 0.000000 0.000000 -0.000000 0.000000 0.000000 7.811217 4.825835 -2.566229 -7.537248 0.192851 2.258723 0.000000 0.000000 0.000000 0.000000 0.000000 0.000000 -0.178487 0.077399 -15.667269 -0.000000 0.000000 0.000000 -2.975815 6.120698 3.042902 0.000000 0.000000 0.000000 -2.302061 2.521982 -15.218594 -0.643168 -2.476548 -1.440646 -1.717099 10.802588 5.278674 0.000000 0.000000 0.000000
89.896548 81.263172 414.451882 0.157220 -0.024115 15.760495 -0.144760 0.065912 -15.760379 -0.000000 0.000000 0.000000 -0.000000 0.000000 0.000000 0.000000 0.000000 0.000000 -1.791715 -0.233293 -0.082155 -1.886384 0.227310 0.736162 -1.973454 13.098786 -3.475847 -1.916122 -3.176589 1.518137 0.000000 0.000000 0.000000 0.000000 0.000000 0.000000 -0.000000 0.000000 0.000000 -0.000000 0.000000 0.000000 10.000083 5.765101 -3.267402 -9.913160 -0.901555 2.578517 0.000000 0.000000 0.000000 0.000000 0.000000 0.000000 -0.144760 0.065912 -15.760379 -0.000000 0.000000 0.000000 -2.442889 4.887045 2.615288 0.000000 0.000000 0.000000 -2.746257 2.671880 -15.263078 -0.832365 -2.676545 -1.702807 -1.741959 12.102636 6.107850 0.000000 0.000000 0.000000
89.852109 81.279551 414.424675 0.088231 -0.049522 15.948533 -0.071228 0.071859 -15.948450 -0.000000 0.000000 0.000000 -0.000000 0.000000 0.000000 0.000000 0.000000 0.000000 -1.946541 -0.201386 -0.100358 -1.735595 0.696584 0.671999 0.425668 15.812898 -4.572987 -3.332444 -6.125468 2.060953 0.000000 0.000000 0.000000 0.000000 0.000000 0.000000 -0.000000 0.000000 0.000000 -0.000000 0.000000 0.000000 12.173604 6.077503 -3.763140 -12.602933 -2.304225 2.647691 0.000000 0.000000 0.000000 0.000000 0.000000 0.000000 -0.071228 0.071859 -15.948450 0.630557 0.813976 0.241038 -1.106926 -0.415895 0.625135 0.000000 0.000000 0.000000 -3.172541 2.695715 -15.424426 -1.104904 -2.822443 -1.973037 -2.534618 14.867247 7.684018 0.000000 0.000000 0.000000
89.814994 81.310796 414.346374 -0.024476 -0.033481 16.107119 0.032804 0.025376 -16.107134 -0.000000 0.000000 0.000000 -0.000000 0.000000 0.000000 0.000000 0.000000 0.000000 -1.906169 -0.114414 -0.115401 -1.894599 1.110852 0.624991 4.551423 17.872760 -5.927727 -7.094854 -7.270635 1.951712 0.000000 0.000000 0.000000 0.000000 0.000000 0.000000 -0.000000 0.000000 0.000000 -0.000000 0.000000 0.000000 14.407592 6.287972 -4.246371 -16.128998 -2.457957 2.692230 0.000000 0.000000 0.000000 0.000000 0.000000 0.000000 0.032804 0.025376 -16.107134 0.784079 1.096288 0.309681 0.288848 -4.624437 -0.748249 0.000000 0.000000 0.000000 -3.528470 2.389459 -15.609819 -1.342528 -2.614399 -2.132297 -0.894409 13.077865 6.994406 0.000000 0.000000 0.000000
89.786215 81.353535 414.231305 -0.117786 0.039647 16.250053 0.101986 -0.071023 -16.249949 -0.000000 0.000000 0.000000 -0.000000 0.000000 0.000000 0.000000 0.000000 0.000000 -1.635957 0.139806 -0.148861 -2.205863 1.563647 0.542905 9.098415 19.178226 -7.265116 -10.700912 -7.465677 1.697519 0.000000 0.000000 0.000000 0.000000 0.000000 0.000000 -0.000000 0.000000 0.000000 -0.000000 0.000000 0.000000 15.428313 7.630089 -5.004444 -16.860165 -5.046613 2.825721 0.000000 0.000000 0.000000 0.000000 0.000000 0.000000 0.101986 -0.071023 -16.249949 0.914138 1.313379 0.364344 1.205617 -7.742593 -1.602398 0.000000 0.000000 0.000000 -3.843303 1.869908 -15.818102 -1.531451 -2.164493 -2.190404 -0.579208 13.143490 7.279901 0.000000 0.000000 0.000000
89.767532 81.411908 414.063203 -0.273614 0.109426 16.312608 0.231865 -0.181872 -16.311979 -0.000000 0.000000 0.000000 -0.000000 0.000000 0.000000 0.000000 0.000000 0.000000 -1.338718 0.301505 -0.161998 -2.306975 2.208922 0.381281 14.833379 18.738885 -8.258967 -14.960444 -7.483233 1.244851 0.000000 0.000000 0.000000 0.000000 0.000000 0.000000 -0.000000 0.000000 0.000000 -0.000000 0.000000 0.000000 15.648791 8.888338 -5.586878 -17.501459 -6.421558 2.898853 0.000000 0.000000 0.000000 0.000000 0.000000 0.000000 0.231865 -0.181872 -16.311979 0.969166 1.393273 0.385748 1.671335 -9.347678 -1.983647 0.000000 0.000000 0.000000 -4.064743 1.164851 -15.982418 -1.625852 -1.493244 -2.147978 -0.400157 13.144315 7.468665 0.000000 0.000000 0.000000
